<svg width="27" height="26" viewBox="0 0 27 26" fill="none" xmlns="http://www.w3.org/2000/svg">
<path d="M17.7783 13C17.7783 14.0774 17.3482 15.1108 16.5826 15.8726C15.817 16.6345 14.7787 17.0625 13.696 17.0625C12.6133 17.0625 11.575 16.6345 10.8094 15.8726C10.0439 15.1108 9.61376 14.0774 9.61376 13C9.61467 12.768 9.63689 12.5423 9.68044 12.3229H8.25301V17.7355C8.25301 18.112 8.55918 18.4167 8.93747 18.4167H18.4559C18.6372 18.4163 18.8109 18.3444 18.939 18.2167C19.0671 18.089 19.139 17.9159 19.139 17.7355V12.3229H17.7116C17.7551 12.5423 17.7774 12.768 17.7783 13ZM13.696 15.7083C14.0535 15.7082 14.4075 15.6381 14.7377 15.5019C15.0679 15.3656 15.368 15.166 15.6207 14.9144C15.8734 14.6628 16.0738 14.3641 16.2106 14.0354C16.3473 13.7067 16.4176 13.3544 16.4175 12.9986C16.4174 12.6429 16.3469 12.2906 16.21 11.962C16.0731 11.6334 15.8726 11.3348 15.6197 11.0833C15.3669 10.8318 15.0667 10.6323 14.7364 10.4963C14.4061 10.3602 14.0521 10.2902 13.6946 10.2903C12.9727 10.2905 12.2804 10.5761 11.77 11.0842C11.2596 11.5924 10.973 12.2815 10.9731 13C10.9733 13.7185 11.2603 14.4075 11.7709 14.9154C12.2816 15.4233 12.974 15.7085 13.696 15.7083ZM16.9618 10.1562H18.5933C18.6471 10.1564 18.7003 10.1461 18.75 10.1257C18.7997 10.1054 18.8448 10.0755 18.8829 10.0377C18.9209 10 18.9511 9.95516 18.9717 9.90578C18.9923 9.8564 19.0029 9.80346 19.0029 9.75V8.12635C19.0031 8.07278 18.9926 8.01969 18.9721 7.97016C18.9516 7.92063 18.9214 7.87562 18.8834 7.83774C18.8453 7.79985 18.8001 7.76983 18.7503 7.74941C18.7005 7.72899 18.6472 7.71857 18.5933 7.71875H16.9618C16.908 7.71857 16.8546 7.72899 16.8049 7.74941C16.7551 7.76983 16.7099 7.79985 16.6718 7.83774C16.6337 7.87562 16.6036 7.92063 16.583 7.97016C16.5625 8.01969 16.552 8.07278 16.5522 8.12635V9.75C16.5536 9.97344 16.7373 10.1562 16.9618 10.1562ZM13.696 0C10.2314 0 6.90876 1.36964 4.45893 3.80761C2.00911 6.24558 0.632813 9.55219 0.632812 13C0.632813 16.4478 2.00911 19.7544 4.45893 22.1924C6.90876 24.6304 10.2314 26 13.696 26C15.4115 26 17.1102 25.6637 18.6951 25.0104C20.28 24.3571 21.7201 23.3995 22.9331 22.1924C24.1461 20.9852 25.1083 19.5521 25.7648 17.9749C26.4213 16.3977 26.7592 14.7072 26.7592 13C26.7592 11.2928 26.4213 9.60235 25.7648 8.02512C25.1083 6.44788 24.1461 5.01477 22.9331 3.80761C21.7201 2.60045 20.28 1.64288 18.6951 0.989566C17.1102 0.336255 15.4115 0 13.696 0ZM20.4998 18.2664C20.4998 19.0938 19.8194 19.7708 18.988 19.7708H8.40405C7.57264 19.7708 6.89226 19.0938 6.89226 18.2664V7.73365C6.89226 6.90625 7.57264 6.22917 8.40405 6.22917H18.988C19.8194 6.22917 20.4998 6.90625 20.4998 7.73365V18.2664Z" fill="#AD0000"/>
</svg>
