<svg width="27" height="26" viewBox="0 0 27 26" fill="none" xmlns="http://www.w3.org/2000/svg">
<path d="M13.8762 0C6.66149 0 0.812988 5.82021 0.812988 13C0.812988 20.1798 6.66149 26 13.8762 26C21.0909 26 26.9394 20.1798 26.9394 13C26.9394 5.82021 21.0909 0 13.8762 0ZM10.6784 18.3882H8.03313V9.91656H10.6784V18.3882ZM9.33945 8.87656C8.50394 8.87656 7.96373 8.2875 7.96373 7.55896C7.96373 6.81552 8.52027 6.24406 9.37346 6.24406C10.2267 6.24406 10.7492 6.81552 10.7655 7.55896C10.7655 8.2875 10.2267 8.87656 9.33945 8.87656ZM20.3397 18.3882H17.6944V13.6933C17.6944 12.6005 17.3107 11.8584 16.3541 11.8584C15.6234 11.8584 15.1893 12.3608 14.9974 12.8443C14.9267 13.0163 14.909 13.26 14.909 13.5024V18.3869H12.2623V12.6181C12.2623 11.5605 12.2283 10.6762 12.1929 9.91521H14.4912L14.6124 11.092H14.6654C15.0138 10.5395 15.867 9.72427 17.2944 9.72427C19.0348 9.72427 20.3397 10.8848 20.3397 13.3792V18.3882Z" fill="#AD0000"/>
</svg>
