<svg width="16" height="15" viewBox="0 0 16 15" fill="none" xmlns="http://www.w3.org/2000/svg">
<path d="M10.0028 8.57437e-08C8.88896 -0.000190935 7.79817 0.318789 6.85818 0.919571C5.91818 1.52035 5.16792 2.37805 4.69529 3.39219C4.22266 4.40633 4.04723 5.5349 4.18955 6.64569C4.33187 7.75648 4.78606 8.80349 5.49889 9.66405L1.10157 14.0847C1.00718 14.1791 0.951419 14.3057 0.945261 14.4395C0.939102 14.5733 0.982999 14.7046 1.0683 14.8074C1.1536 14.9103 1.27413 14.9772 1.40611 14.9952C1.5381 15.0131 1.67197 14.9807 1.78136 14.9043L1.85595 14.8432L6.2522 10.4215C6.97546 11.027 7.8331 11.4483 8.75256 11.65C9.67202 11.8517 10.6263 11.8278 11.5346 11.5802C12.4429 11.3327 13.2785 10.8688 13.9709 10.2279C14.6632 9.58691 15.1919 8.78773 15.5121 7.8979C15.8323 7.00808 15.9347 6.0538 15.8107 5.11576C15.6866 4.17773 15.3397 3.28354 14.7992 2.50883C14.2588 1.73411 13.5408 1.10167 12.7059 0.664974C11.871 0.228283 10.9438 0.000193921 10.0028 8.57437e-08ZM10.0028 1.0714C11.2744 1.0714 12.494 1.57936 13.3932 2.48353C14.2924 3.3877 14.7975 4.61402 14.7975 5.89271C14.7975 7.1714 14.2924 8.39772 13.3932 9.30189C12.494 10.2061 11.2744 10.714 10.0028 10.714C8.73112 10.714 7.51155 10.2061 6.61236 9.30189C5.71317 8.39772 5.20801 7.1714 5.20801 5.89271C5.20801 4.61402 5.71317 3.3877 6.61236 2.48353C7.51155 1.57936 8.73112 1.0714 10.0028 1.0714Z" fill="#687385"/>
</svg>
